<?xml version="1.0" encoding="UTF-8"?><svg id="Layer_1" xmlns="http://www.w3.org/2000/svg" viewBox="0 0 1326.03 1277.67"><path d="M0,2.06V0h1326.03v1277H0v-2.06l1320.54.05-276.22-114.49c-141.93-64.59-279.73-127.62-418.7-199.68-13.2,26.94-28.1,60.39-47.89,83.36-23.73,27.55-49.17,47.88-74.61,61.33-122.7,64.86-260.96-22.71-359.99-124.24-68.75-70.48-154.87-178.93-26.72-240.56,99.76-47.97,333.89,64.92,434.38,109.48,8.91,3.95,56.05,33.52,63.33,28.68,2.32-1.54,14.65-45.79,17.2-52.02,53.13-130.13,106-264.17,167.65-392.08,1.57-3.26,18.18-36.34,23.66-47.27,41.51-82.81,94.31-179.08,148.44-251.85,38.84-52.22,84.31-101.41,142.44-133.55L0,2.06ZM1321.78,2.06h-147.69c-27.62,0-103.96,88.65-122.69,110.96-167.02,198.81-403.17,775.79-401.35,782.78,1.99,7.64,125.3,66.69,142.43,75.95C908.04,1034.22,1321.78,2.06,1321.78,2.06ZM182.12,792.9c-122.44-22.33-77.6,58.16-39.96,116.53,71.07,110.23,291.16,290.03,403.91,126.67,10.32-14.95,43.01-78.58,37.31-93.38-129.95-59.74-261.18-116.37-401.26-149.82Z" fill="#fff"/><path d="M0,0l1116.97.03c-58.31,32.26-103.92,81.63-142.88,134.05-54.29,73.04-107.25,169.67-148.9,252.8-5.5,10.97-22.16,44.17-23.74,47.45-61.84,128.39-114.87,262.94-168.17,393.56-2.55,6.26-14.92,50.67-17.25,52.22-7.3,4.86-54.59-24.82-63.53-28.79-100.81-44.72-335.67-158.04-435.73-109.89-128.55,61.86-42.16,170.72,26.8,241.46,119.93,123.03,295.53,222.31,434.15,61.29,19.86-23.06,34.66-56.32,47.89-83.36,139.4,72.33,280.35,135.97,422.72,200.81l277.69,104.57v10.81l-1326.03.67V0Z"/><path d="M1325.88.02v1223.34l-171.13-68.65c-123.47-54.32-246.35-120.39-362.27-182.96-17.18-9.28-140.43-68.3-142.43-75.95-1.83-7,237.07-585.49,404.61-784.64C1073.45,88.82,1150.02.02,1177.73.02h148.15Z"/><path d="M182.68,792.9c140.52,33.44,272.15,90.08,402.5,149.82,5.72,14.8-27.07,78.43-37.43,93.38-113.1,163.36-333.87-16.44-405.16-126.67-37.75-58.37-82.74-138.86,40.09-116.53Z"/></svg>